<?xml version="1.0" encoding="UTF-8" standalone="no"?>
<!-- Created with Inkscape (http://www.inkscape.org/) -->

<svg
   version="1.1"
   id="svg1"
   width="549.33331"
   height="400"
   viewBox="0 0 549.33331 400"
   sodipodi:docname="logo-mark-mono.svg"
   inkscape:version="1.4.3 (0d15f75, 2025-12-25)"
   xmlns:inkscape="http://www.inkscape.org/namespaces/inkscape"
   xmlns:sodipodi="http://sodipodi.sourceforge.net/DTD/sodipodi-0.dtd"
   xmlns="http://www.w3.org/2000/svg"
   xmlns:svg="http://www.w3.org/2000/svg">
  <defs
     id="defs1" />
  <sodipodi:namedview
     id="namedview1"
     pagecolor="#ffffff"
     bordercolor="#111111"
     borderopacity="1"
     inkscape:showpageshadow="0"
     inkscape:pageopacity="0"
     inkscape:pagecheckerboard="1"
     inkscape:deskcolor="#d1d1d1"
     inkscape:zoom="1.41"
     inkscape:cx="251.77305"
     inkscape:cy="200"
     inkscape:window-width="1920"
     inkscape:window-height="1009"
     inkscape:window-x="-8"
     inkscape:window-y="272"
     inkscape:window-maximized="1"
     inkscape:current-layer="g1" />
  <g
     inkscape:groupmode="layer"
     inkscape:label="Image"
     id="g1">
    <path
       style="fill:#000000"
       d="M 14.921137,377.96605 C 14.422679,377.4676 19.881169,371.0176 27.051113,363.63272 83.815449,305.16678 185.8683,200.52685 199.77382,186.53143 l 7.72419,-7.77413 -12.99772,-14.01653 -12.99773,-14.01653 -10.29315,10.40738 c -5.66123,5.72406 -10.93858,10.40739 -11.72743,10.40739 -0.78886,0 -18.32383,-17.4 -38.96661,-38.66667 C 99.872589,111.60567 67.056804,77.812914 47.591403,57.777318 20.160949,29.543353 12.63277,21.075004 14.124704,20.131069 c 1.09646,-0.693722 31.576035,-1.226682 70.817999,-1.238312 l 68.893057,-0.02042 23.10694,27.543438 c 12.70882,15.148891 27.00694,32.18105 31.77361,37.849242 4.76666,5.668192 13.76666,16.4705 19.99999,24.00513 6.23334,7.53464 14.93334,17.89086 19.33334,23.01383 4.4,5.12298 12.39634,14.76236 17.76964,21.42085 5.37331,6.6585 13.08341,15.88078 17.13356,20.49397 4.05015,4.61318 7.0668,9.16188 6.70365,10.10821 -0.36314,0.94633 -13.72944,18.48566 -29.70289,38.9763 -15.97345,20.49063 -33.28644,42.71891 -38.4733,49.39616 -5.18686,6.67726 -15.43066,19.78972 -22.76399,29.13881 -7.33334,9.34909 -19.03334,24.3947 -26,33.43468 -6.96667,9.03999 -15.35811,19.92752 -18.64765,24.19453 -3.28955,4.267 -8.33347,10.60818 -11.20872,14.09152 l -5.22773,6.33333 H 76.729816 c -33.496316,0 -61.310222,-0.40783 -61.808679,-0.90629 z M 346.61234,326.10487 C 319.53619,297.81609 292.3641,269.30921 286.22992,262.75624 l -11.15304,-11.91449 12.57214,-15.65137 c 11.26918,-14.02928 38.26585,-47.90684 41.331,-51.86543 0.806,-1.04093 -4.13199,-7.80505 -15.0872,-20.66666 -8.95695,-10.51561 -17.07996,-20.06 -18.05114,-21.20976 -1.89326,-2.24139 -3.06395,-0.63923 32.23697,-44.11822 7.3493,-9.051883 24.29006,-30.040608 37.64615,-46.641609 15.8811,-19.739472 25.38213,-30.459305 27.45799,-30.980312 4.84877,-1.216964 140.66851,-0.90231 141.42866,0.327649 0.36628,0.592656 -15.61304,18.423274 -35.5096,39.623596 C 465.44574,95.52112 389.13493,177.15332 354.51636,214.32752 l -15.01351,16.12184 12.50537,11.54482 c 6.87796,6.34966 12.98271,11.54483 13.56611,11.54483 0.58341,0 6.17902,-5.45352 12.43469,-12.11892 7.86671,-8.38196 12.00771,-11.86559 13.42924,-11.29738 1.13041,0.45185 12.20393,11.45536 24.60783,24.45225 12.40389,12.99689 39.37901,41.02126 59.9447,62.27637 20.5657,21.2551 42.1486,43.6051 47.96201,49.66666 l 10.56985,11.02102 h -69.34047 -69.34047 z"
       id="path1" />
  </g>
</svg>
