<?xml version="1.0" encoding="UTF-8" standalone="no"?>
<!-- Created with Inkscape (http://www.inkscape.org/) -->

<svg
   width="731.22791"
   height="92.967957"
   version="1.1"
   viewBox="0 0 731.22793 92.967958"
   id="svg1"
   sodipodi:docname="1bdb5cbe3044f1b49384bb575acebee2.svg"
   inkscape:version="1.4.3 (0d15f75, 2025-12-25)"
   xmlns:inkscape="http://www.inkscape.org/namespaces/inkscape"
   xmlns:sodipodi="http://sodipodi.sourceforge.net/DTD/sodipodi-0.dtd"
   xmlns="http://www.w3.org/2000/svg"
   xmlns:svg="http://www.w3.org/2000/svg">
  <defs
     id="defs1" />
  <sodipodi:namedview
     id="namedview1"
     pagecolor="#ffffff"
     bordercolor="#111111"
     borderopacity="1"
     inkscape:showpageshadow="0"
     inkscape:pageopacity="0"
     inkscape:pagecheckerboard="1"
     inkscape:deskcolor="#d1d1d1"
     inkscape:zoom="8.37"
     inkscape:cx="143.13023"
     inkscape:cy="22.700119"
     inkscape:window-width="1920"
     inkscape:window-height="1009"
     inkscape:window-x="-8"
     inkscape:window-y="272"
     inkscape:window-maximized="1"
     inkscape:current-layer="svg1"
     inkscape:pageshadow="2" />
  <path
     style="fill:#74330b"
     d="m 254.07038,91.482731 c -2.60503,-0.717479 -6.92501,-2.351296 -9.59996,-3.630703 l -4.86354,-2.326196 -7.16954,-7.142042 -7.16954,-7.142042 -2.28629,-6.063127 c -1.25746,-3.33472 -2.78466,-8.905797 -3.39378,-12.380171 l -1.10749,-6.317045 1.23992,-7.23066 1.23992,-7.230659 2.94521,-6.157461 2.94522,-6.15746 5.22917,-5.32953 C 238.27323,8.0632224 243.35042,4.959087 252.15266,2.103256 L 258.63532,0 h 6.2245 6.22451 l 7.33059,2.493294 c 9.50113,3.231542 12.64433,5.2464694 19.6631,12.604905 l 5.78516,6.065138 1.94048,4.386769 c 5.00717,11.319539 6.12052,21.407158 3.48592,31.584666 -2.33557,9.022357 -5.19078,14.192167 -11.65393,21.101293 l -5.8399,6.242869 -5.51154,2.788585 c -10.89598,5.512855 -22.15381,6.985954 -32.21383,4.215212 z m 20.14214,-16.70593 5.75527,-2.022815 5.33477,-5.2685 5.33477,-5.2685 1.76887,-4.582309 1.76886,-4.582311 -0.0394,-7.132817 -0.0394,-7.132818 -2.80836,-5.740058 -2.80835,-5.740057 -4.30382,-3.526658 c -2.3671,-1.939661 -5.95941,-4.218406 -7.98291,-5.063877 l -3.67909,-1.537219 h -7.64382 -7.64383 l -3.67909,1.537219 c -2.0235,0.845471 -5.54623,3.067203 -7.8283,4.937183 l -4.1492,3.399962 -2.98648,5.420661 -2.98648,5.42066 0.0231,8.589431 0.0231,8.589431 2.15309,4.042085 c 1.18421,2.223147 4.42218,6.257962 7.19551,8.966257 l 5.0424,4.924172 5.39707,1.863857 c 7.00385,2.418751 11.70159,2.395495 18.78175,-0.09298 z m 62.0896,16.136663 c -8.93632,-3.174677 -17.538,-10.377735 -15.78328,-13.216934 0.91039,-1.473031 11.34566,-8.981085 12.48261,-8.981085 0.55997,0 1.50233,0.904762 2.09415,2.010583 0.59182,1.105821 2.40418,2.697392 4.02746,3.536825 l 2.95143,1.526241 h 4.87794 4.87795 l 2.49852,-1.722038 c 3.6292,-2.501329 4.95636,-4.498524 4.99269,-7.513334 l 0.0321,-2.666984 -1.76842,-2.126578 -1.76841,-2.126578 -12.50822,-5.542986 c -14.68672,-6.508381 -18.29774,-9.038823 -22.07963,-15.4724 l -2.80146,-4.765734 0.0966,-6.063127 0.0966,-6.063128 2.29356,-4.811079 2.29356,-4.81108 4.7901,-4.2836116 4.7901,-4.2836124 5.08161,-1.768412 L 342.95129,0 h 6.00012 6.00012 l 4.98,1.681642 c 6.52929,2.204811 11.3991,5.3200364 15.34913,9.818869 l 3.20999,3.655973 -0.57352,1.494558 c -0.62575,1.630668 -11.00726,7.601468 -13.21678,7.601468 -0.75242,0 -1.62626,-0.672899 -1.94186,-1.495333 -0.3156,-0.822433 -2.18288,-2.489793 -4.14953,-3.705244 l -3.57571,-2.209912 h -5.73558 -5.73558 l -3.13385,1.851213 c -3.40215,2.009698 -5.32712,5.285689 -5.32712,9.065917 v 2.401022 l 2.90208,2.902077 2.90208,2.902077 11.49786,4.875166 c 13.16092,5.580318 18.24003,9.176987 21.33362,15.106998 l 2.18039,4.179524 0.003,5.557866 0.003,5.557867 -2.12318,4.705321 -2.12318,4.705321 -4.21733,4.092777 -4.21733,4.092775 -5.51923,2.065007 -5.51923,2.065007 -5.26733,-0.07383 -5.26734,-0.07383 z m 111.97754,0.498973 C 432.20264,86.92013 420.61513,75.893426 415.83641,60.539363 l -1.9145,-6.151278 0.012,-7.741508 0.012,-7.741508 1.34967,-5.052607 c 1.91736,-7.177797 4.84205,-12.469218 10.1634,-18.387836 C 431.36981,8.8903704 437.89481,4.772837 446.6177,2.112647 L 453.54516,0 h 5.53866 5.53865 l 7.59465,2.206718 7.59466,2.206719 0.5018,1.307684 0.50181,1.3076844 -3.72683,6.6641976 -3.72684,6.664198 -1.67791,-0.714762 c -0.92286,-0.393119 -3.49686,-1.3804 -5.72001,-2.193956 l -4.04209,-1.479195 -5.22938,0.523945 c -6.85993,0.687313 -14.0841,3.95359 -18.70806,8.458512 l -3.72701,3.63106 -2.30474,5.161132 -2.30473,5.161132 v 7.578909 7.57891 l 2.30473,5.161132 2.30474,5.161131 3.72701,3.631059 c 2.04985,1.997083 6.00068,4.654214 8.77961,5.904735 l 5.05261,2.273676 7.57892,7.8e-5 7.57891,7.8e-5 3.53683,-1.836828 c 1.94526,-1.010255 4.60846,-2.806788 5.91824,-3.992296 l 2.38141,-2.155469 5.44831,6.063128 c 2.99657,3.33472 5.44913,6.356774 5.45013,6.715676 0.003,1.161532 -9.89002,7.03914 -15.37708,9.135555 l -5.33679,2.039001 -7.57892,0.400948 -7.57891,0.400948 z m 77.30493,-0.350959 c -7.52262,-2.18675 -10.91577,-3.9544 -17.34275,-9.034631 l -5.04618,-3.988773 -3.6335,-5.474093 c -1.99842,-3.010751 -4.6302,-8.559218 -5.84839,-12.329927 l -2.21489,-6.855835 0.40648,-9.257618 0.40648,-9.257617 3.28525,-7.016306 c 4.30267,-9.189204 9.26525,-15.107135 16.69543,-19.9094896 L 518.3412,4.027742 525.1034,2.013871 531.86561,0 h 5.51815 c 19.54946,0 38.05871,14.099785 43.68509,33.277982 l 1.61023,5.488648 v 7.810727 7.810728 l -1.9145,6.151278 c -4.82358,15.49819 -16.74554,26.583275 -33.16652,30.838378 -7.77055,2.013549 -14.32254,1.919418 -22.01347,-0.316263 z M 549.25198,73.68905 c 6.13768,-2.708274 11.90007,-8.365931 14.84336,-14.573556 l 2.39564,-5.052606 -0.0123,-7.57891 -0.0123,-7.578909 -2.05414,-4.547346 C 561.7653,28.498078 556.14267,22.697976 550.12338,19.617858 l -4.76639,-2.438996 -7.86514,0.0099 -7.86514,0.0099 -5.05261,2.357861 -5.05261,2.357861 -3.73229,4.14029 c -2.05276,2.27716 -4.5538,5.645342 -5.55787,7.48485 l -1.82558,3.344559 v 9.599952 9.599952 l 1.82558,3.34456 c 4.31431,7.904047 10.63258,13.120702 19.39538,16.01373 l 4.04209,1.334489 5.478,-0.522939 c 3.0129,-0.287617 7.56025,-1.441741 10.10522,-2.56472 z m 127.14264,18.465224 -4.81034,-0.308421 0.26299,-45.165035 0.263,-45.165036 23.02021,-0.271682 23.02021,-0.271681 1.83095,0.979897 1.83096,0.979897 2.1803,5.6974634 c 1.19916,3.1336036 2.18029,6.3390996 2.18029,7.1233236 v 1.425862 H 708.1859 690.19861 l -1.21263,1.212625 -1.21262,1.212626 v 9.903108 9.903108 h 1.97174 c 1.08446,0 4.59051,-0.682101 7.79122,-1.515782 l 5.81949,-1.515781 h 6.97906 6.97907 l -0.72702,6.821018 c -0.39986,3.75156 -1.11117,7.542503 -1.58069,8.424318 l -0.85368,1.6033 -5.56401,-0.461411 c -3.0602,-0.253776 -6.6868,-0.179608 -8.0591,0.164818 -3.62422,0.90962 -8.50545,5.351161 -10.77935,9.808365 l -1.97673,3.874714 v 3.453349 3.453348 l 1.41633,1.17545 1.41633,1.17545 20.31093,-0.293826 20.31094,-0.293826 -10e-4,1.061047 c -5.7e-4,0.583576 -0.38061,1.493046 -0.84454,2.021043 -0.46392,0.527997 -1.66466,3.233668 -2.66831,6.012602 -1.00365,2.778934 -2.25722,5.604025 -2.78571,6.27798 l -0.96089,1.225373 -21.38121,0.290409 c -11.75967,0.159724 -23.54587,0.151619 -26.19156,-0.01801 z M 0.15632999,91.016739 c -0.3197602,-0.517383 -0.1330824,-1.21776 0.4148398,-1.556395 C 1.119092,89.12171 3.697674,84.883994 6.3013516,80.043196 8.9050294,75.2024 14.406641,65.217449 18.527154,57.854417 L 26.018995,44.467084 25.32658,42.191337 C 24.592479,39.778582 10.132314,13.300608 5.9484156,6.7080264 L 3.4717777,2.80558 4.4146366,1.862721 l 0.942859,-0.942858 7.8744784,0.297959 7.874479,0.29796 6.182149,11.115734 6.182149,11.115734 h 1.833531 1.833531 l 6.266091,-11.115734 6.26609,-11.115734 7.967699,-0.29796 7.967699,-0.297959 0.714512,0.80322 0.714511,0.80322 -10.913171,19.705165 c -6.002245,10.83784 -10.941673,20.281412 -10.976507,20.985715 -0.05843,1.181463 15.128726,29.727721 22.160856,41.654236 1.671372,2.834652 3.038858,5.606339 3.038858,6.159306 V 92.03612 L 61.527638,91.744147 52.710825,91.452174 44.971701,77.304876 37.232578,63.157578 H 35.41918 33.605782 L 25.56762,77.557506 17.529458,91.957435 H 9.1335864 0.73771249 Z M 108.6674,91.242051 c -0.0423,-0.440219 -0.0309,-9.440356 0.0252,-20.000303 L 108.79473,52.041845 95.127458,27.379334 C 87.610463,13.814953 81.460192,2.332905 81.460192,1.863672 V 1.010521 h 8.481832 8.481834 l 7.950902,14.399928 7.9509,14.399928 h 2.00929 2.00929 l 7.93814,-14.399928 7.93814,-14.399928 h 8.48284 8.48285 v 1.313678 c 0,0.722522 -0.39753,1.745675 -0.88341,2.273673 -0.48587,0.527997 -6.51111,11.191523 -13.38941,23.696724 l -12.50601,22.736728 -0.1484,20.210424 -0.14839,20.210426 -7.68315,0.295137 -7.68315,0.295138 z m 52.53982,0.294919 c -0.23158,-0.231256 -0.29815,-20.694313 -0.14794,-45.473457 L 161.3324,1.010521 h 24.61357 24.61357 l 1.16582,1.404734 c 0.95407,1.149582 6.1553,13.359797 6.1553,14.449955 0,0.172508 -8.37541,0.313652 -18.61201,0.313652 -10.23661,0 -19.3313,0.276018 -20.21044,0.613375 l -1.59843,0.613375 v 10.028813 10.028813 l 1.32802,0.509609 c 0.73041,0.280286 4.00909,-0.188721 7.28596,-1.042236 l 5.95794,-1.551845 h 7.41679 7.41678 l -0.69896,6.315757 c -0.38442,3.473667 -1.02752,7.225227 -1.4291,8.336801 l -0.73014,2.021042 -6.66065,-0.342357 -6.66065,-0.342357 -4.08994,2.298673 -4.08994,2.298673 -2.52306,5.063112 -2.52305,5.063113 v 12.433105 12.433107 h -7.91576 c -4.35366,0 -8.10523,-0.189209 -8.3368,-0.420465 z m 431.02906,-0.842687 c -0.26652,-0.694733 -0.36593,-21.044106 -0.22092,-45.220826 l 0.26367,-43.957675 15.41555,-0.278978 15.41555,-0.278978 6.31067,1.617064 c 15.15084,3.882293 26.97744,15.419011 31.47456,30.703092 l 1.61495,5.488648 v 7.183189 7.183189 l -1.54822,5.944019 c -4.0168,15.421509 -16.02225,27.176004 -32.13895,31.467129 l -5.21793,1.389291 -15.44217,0.01199 -15.44217,0.01199 z m 35.58528,-16.41629 5.08843,-1.511101 4.55412,-4.008694 4.55412,-4.008694 2.32542,-5.343308 2.32541,-5.343308 v -7.57891 -7.578909 l -2.3054,-5.296792 -2.3054,-5.296791 -4.03288,-3.643462 c -5.42583,-4.901907 -9.53226,-6.450907 -18.76792,-7.079502 l -7.77851,-0.529419 -1.51578,1.033195 -1.51578,1.033195 -0.16813,25.961979 -0.16812,25.961979 0.901,2.369821 0.90101,2.369822 h 6.40999 6.40999 z"
     id="path32" />
</svg>
