<?xml version="1.0" encoding="UTF-8" standalone="no"?>
<!-- Created with Inkscape (http://www.inkscape.org/) -->

<svg
   version="1.1"
   id="svg1"
   width="591.1579"
   height="48.505264"
   viewBox="0 0 591.1579 48.505264"
   sodipodi:docname="logo-lockup-mono.svg"
   inkscape:version="1.4.3 (0d15f75, 2025-12-25)"
   xmlns:inkscape="http://www.inkscape.org/namespaces/inkscape"
   xmlns:sodipodi="http://sodipodi.sourceforge.net/DTD/sodipodi-0.dtd"
   xmlns="http://www.w3.org/2000/svg"
   xmlns:svg="http://www.w3.org/2000/svg">
  <defs
     id="defs1" />
  <sodipodi:namedview
     id="namedview1"
     pagecolor="#ffffff"
     bordercolor="#111111"
     borderopacity="1"
     inkscape:showpageshadow="0"
     inkscape:pageopacity="0"
     inkscape:pagecheckerboard="1"
     inkscape:deskcolor="#d1d1d1"
     inkscape:zoom="2.9924323"
     inkscape:cx="125.65029"
     inkscape:cy="24.394871"
     inkscape:window-width="1920"
     inkscape:window-height="1009"
     inkscape:window-x="-8"
     inkscape:window-y="272"
     inkscape:window-maximized="1"
     inkscape:current-layer="g1" />
  <g
     inkscape:groupmode="layer"
     inkscape:label="Image"
     id="g1">
    <path
       style="fill:#000000"
       d="m 1.0105263,47.087521 c 0,-0.407767 4.813416,-5.569781 10.6964797,-11.471144 L 22.403487,24.886626 11.087557,13.115664 -0.22837345,1.344703 5.6963395,1.298233 11.621053,1.251763 34.043985,24.287706 56.466916,47.32365 l -5.672181,0.308299 -5.672182,0.308299 -8.459202,-8.39251 -8.459202,-8.39251 -7.786285,8.372572 -7.786285,8.372571 -5.8105264,-0.03573 C 3.6252631,47.844992 1.0105263,47.495287 1.0105263,47.087521 Z M 63.663158,43.281545 v -4.547368 h 19.985678 c 16.453094,0 20.382644,-0.278053 22.231574,-1.57309 1.23524,-0.8652 2.2459,-2.229411 2.2459,-3.031579 0,-1.207594 -2.6671,-1.458489 -15.504212,-1.458489 -14.23602,0 -15.864157,-0.19034 -19.904601,-2.326978 -6.683215,-3.53417 -9.054339,-8.78835 -9.054339,-20.063541 V 1.344703 h 4.547369 4.547368 v 8.0015624 c 0,4.4008586 0.282474,8.7376776 0.62772,9.6373736 1.382271,3.602141 5.812843,4.592643 20.54315,4.592643 H 108.12631 V 12.460492 1.344703 h 4.54736 4.54737 v 18.040034 c 0,17.047545 -0.12509,18.22329 -2.27368,21.371003 -4.44573,6.513037 -6.84524,7.073174 -30.300015,7.073174 H 63.663158 Z M 130.35789,24.586808 V 1.344703 h 24.25263 24.25263 v 4.547368 4.547368 h -19.70526 -19.70527 v 18.694738 18.694737 h -4.54737 -4.54736 z m 68.21052,21.839856 c -4.26376,-1.86093 -10.27745,-8.855359 -11.54817,-13.43149 -3.45689,-12.44902 1.45947,-25.188013 11.47669,-29.737734 5.92475,-2.69096103 26.55506,-2.69096103 32.47981,0 10.01722,4.549721 14.93358,17.288714 11.47668,29.737734 -1.30637,4.704548 -7.34922,11.622417 -11.76834,13.47243 -4.3685,1.828823 -27.9014,1.798825 -32.11667,-0.04094 z m 30.61245,-10.198342 c 4.0253,-3.387067 5.63131,-7.658566 4.99663,-13.289488 -0.57519,-5.103037 -3.1539,-9.292811 -6.90649,-11.22134 -1.45065,-0.745519 -6.49883,-1.248261 -12.53417,-1.248261 -6.03533,0 -11.08351,0.502742 -12.53416,1.248261 -3.75259,1.928529 -6.3313,6.118303 -6.90649,11.22134 -0.63469,5.630922 0.97133,9.902421 4.99663,13.289488 2.78717,2.345249 3.71292,2.505855 14.44402,2.505855 10.73111,0 11.65686,-0.160606 14.44403,-2.505855 z m 23.45071,7.053223 v -4.547368 h 20.51368 c 21.52997,0 22.93895,-0.279314 22.93895,-4.547369 0,-4.09109 -1.70623,-4.546283 -17.12842,-4.569561 -16.81082,-0.02538 -21.91327,-1.452886 -24.74141,-6.921899 -2.29015,-4.428675 -2.0421,-11.804156 0.51792,-15.399371 3.91513,-5.498287 6.02047,-5.951274 27.65962,-5.951274 h 19.75545 v 4.547368 4.547368 h -19.1427 c -18.63597,0 -19.18434,0.05945 -20.71579,2.245901 -2.02442,2.890264 -1.98489,3.405458 0.44796,5.83831 1.85386,1.853861 3.36842,2.021053 18.30836,2.021053 h 16.28731 l 3.92322,3.92322 c 3.64521,3.645211 3.92322,4.333915 3.92322,9.718885 0,5.384971 -0.27801,6.073675 -3.92322,9.718886 l -3.92322,3.92322 h -22.35047 -22.35046 z m 106.36422,2.885415 c -4.59719,-2.266328 -10.03266,-8.601102 -11.30186,-13.171786 -3.4569,-12.44902 1.45946,-25.188013 11.47668,-29.737734 3.48502,-1.582861 6.7772,-1.871742 21.54517,-1.890544 l 17.43158,-0.02219 v 4.482232 4.482232 l -17.76941,0.317768 -17.76941,0.317769 -2.89221,3.239522 c -5.42964,6.081671 -5.20135,15.477573 0.51494,21.193862 l 3.35609,3.35609 h 17.28 17.28 v 4.547368 4.547369 l -17.93684,-0.02301 c -14.36322,-0.01843 -18.58991,-0.344959 -21.21473,-1.638945 z m 60.87789,0.259704 c -4.26376,-1.86093 -10.27745,-8.855359 -11.54817,-13.43149 -3.4569,-12.44902 1.45946,-25.188013 11.47668,-29.737734 5.92475,-2.69096103 26.55506,-2.69096103 32.47981,0 10.01722,4.549721 14.93358,17.288714 11.47669,29.737734 -1.30638,4.704548 -7.34923,11.622417 -11.76835,13.47243 -4.3685,1.828823 -27.9014,1.798825 -32.11666,-0.04094 z m 30.61244,-10.198342 c 4.0253,-3.387067 5.63132,-7.658566 4.99663,-13.289488 -0.57519,-5.103037 -3.1539,-9.292811 -6.90649,-11.22134 -1.45065,-0.745519 -6.49883,-1.248261 -12.53416,-1.248261 -6.03534,0 -11.08351,0.502742 -12.53417,1.248261 -3.75259,1.928529 -6.3313,6.118303 -6.90648,11.22134 -0.63469,5.630922 0.97132,9.902421 4.99662,13.289488 2.78717,2.345249 3.71292,2.505855 14.44403,2.505855 10.73111,0 11.65685,-0.160606 14.44402,-2.505855 z M 475.95789,24.529017 V 1.229121 l 20.55307,0.310422 20.55307,0.310423 4.19411,2.908953 c 2.7354,1.897223 5.11516,4.7915234 6.84235,8.321769 2.28952,4.679619 2.59735,6.420582 2.27255,12.852618 -0.47633,9.432705 -4.11584,15.976979 -10.86883,19.543467 -4.01877,2.122452 -5.77032,2.352141 -17.93684,2.352141 H 488.0842 v -4.547369 -4.547368 h 12.22303 c 9.70693,0 12.82382,-0.35489 15.14157,-1.724021 4.28745,-2.532658 6.30361,-7.530297 5.74677,-14.245052 -0.40223,-4.850336 -0.9469,-6.02829 -4.14084,-8.955315 l -3.67769,-3.37035 h -14.16221 -14.16221 v 18.694738 18.694737 h -4.54736 -4.54737 z m 66.69473,0.05779 V 1.344703 h 24.25264 24.25263 v 4.547368 4.547368 h -19.70527 -19.70526 v 14.147369 14.147369 h 19.70526 19.70527 v 4.547368 4.547369 H 566.90526 542.65262 Z M 142.4842,24.055225 v -4.573689 l 15.41053,0.278952 15.41052,0.278952 0.31074,4.294737 0.31073,4.294736 H 158.20546 142.4842 Z m 412.29474,0 v -4.573689 l 15.41053,0.278952 15.41052,0.278952 0.31074,4.294737 0.31073,4.294736 H 570.5002 554.77894 Z M 32.973725,19.671558 30.200908,16.777361 37.584665,8.986117 44.968421,1.194873 50.723455,1.522419 56.478488,1.849966 46.842056,12.20786 c -5.300038,5.696843 -9.964725,10.357895 -10.365973,10.357895 -0.401247,0 -1.977308,-1.302388 -3.502358,-2.894197 z"
       id="path4" />
  </g>
</svg>
