<?xml version="1.0" encoding="UTF-8" standalone="no"?>
<!-- Created with Inkscape (http://www.inkscape.org/) -->

<svg
   version="1.1"
   id="svg1"
   width="591.1579"
   height="48.505264"
   viewBox="0 0 591.1579 48.505264"
   sodipodi:docname="logo-wordmark.svg"
   inkscape:version="1.4.3 (0d15f75, 2025-12-25)"
   xmlns:inkscape="http://www.inkscape.org/namespaces/inkscape"
   xmlns:sodipodi="http://sodipodi.sourceforge.net/DTD/sodipodi-0.dtd"
   xmlns="http://www.w3.org/2000/svg"
   xmlns:svg="http://www.w3.org/2000/svg">
  <defs
     id="defs1" />
  <sodipodi:namedview
     id="namedview1"
     pagecolor="#ffffff"
     bordercolor="#111111"
     borderopacity="1"
     inkscape:showpageshadow="0"
     inkscape:pageopacity="0"
     inkscape:pagecheckerboard="1"
     inkscape:deskcolor="#d1d1d1"
     inkscape:zoom="2.79"
     inkscape:cx="107.16846"
     inkscape:cy="24.014337"
     inkscape:window-width="1920"
     inkscape:window-height="1009"
     inkscape:window-x="-8"
     inkscape:window-y="272"
     inkscape:window-maximized="1"
     inkscape:current-layer="g1" />
  <g
     inkscape:groupmode="layer"
     inkscape:label="Image"
     id="g1">
    <g
       id="g2"
       transform="translate(-0.40691619,0.05562973)">
      <path
         style="fill:#ba9985"
         d="m 542.09571,47.219239 -0.49349,-1.286026 0.29292,-22.713975 0.29292,-22.71397483 0.23229,23.47677183 0.23228,23.476771 24.50527,0.289423 24.50526,0.289422 -24.53698,0.233807 -24.53698,0.233806 z"
         id="path3" />
      <path
         style="fill:#74320a"
         d="M 5.5891335,42.189475 10.597029,36.884211 16.643705,30.562406 22.690381,24.240601 11.850454,13.366957 1.0105263,2.4933127 V 1.7519195 1.0105263 H 6.3932951 11.776064 L 34.270486,24.252632 56.764909,47.494738 h -5.877136 -5.877137 l -8.357949,-8.314532 -8.35795,-8.314532 -8.35795,8.314532 -8.357949,8.314532 h -5.4988 -5.49879974 z m 58.0740245,1.322058 v -3.983206 l 20.107019,-0.311531 20.107023,-0.311532 2.12456,-1.92504 2.12456,-1.92504 v -1.359171 -1.35917 L 94.736843,32.312735 81.347369,32.288627 77.383472,31.369289 73.419576,30.449952 70.87749,28.552011 68.335405,26.65407 66.286516,23.909806 64.237627,21.165542 63.832861,11.088034 63.428095,1.0105263 h 4.6649 4.6649 V 9.6459332 18.28134 l 2.480383,2.480383 2.480383,2.480383 H 92.922489 108.12632 V 12.126316 1.0105263 h 4.54736 4.54737 l -0.002,17.4315797 -0.002,17.431579 -1.76685,3.536842 -1.76685,3.536842 -4.50886,2.273685 -4.50885,2.273684 H 84.164828 63.663158 Z M 130.3579,24.252632 V 1.0105263 h 24.25263 24.25263 V 5.5578949 10.105263 H 158.65263 138.44211 V 28.800001 47.494738 H 134.4 130.3579 Z m 68.723,21.632355 -3.52963,-1.530644 -2.37924,-2.219276 -2.37924,-2.219277 -2.15192,-4.042105 -2.15192,-4.042105 -0.0234,-7.578948 -0.0234,-7.578947 2.78284,-4.733965 2.78285,-4.7339655 2.77505,-1.9724067 2.77505,-1.9724068 4.0421,-1.1195717 4.04211,-1.1195717 h 9.09473 9.09474 l 4.04211,1.1195717 4.0421,1.1195717 2.77505,1.9724068 2.77505,1.9724067 2.78284,4.7339655 2.78285,4.733965 -0.0234,7.578947 -0.0234,7.578948 -2.15192,4.042105 -2.15192,4.042105 -2.38582,2.225454 -2.38582,2.225454 -3.74322,1.56402 -3.74323,1.56402 -11.90614,-0.03955 -11.90614,-0.03955 z m 27.18235,-7.794654 3.44219,-1.206122 2.1157,-2.853049 2.1157,-2.85305 v -7.07723 -7.077231 l -3.77463,-3.459194 -3.77463,-3.459194 h -11.65074 -11.65073 l -3.58436,3.284819 -3.58435,3.284818 -0.56738,4.230123 -0.56738,4.230123 0.66815,3.561529 0.66814,3.56153 3.00174,3.001738 3.00174,3.001739 2.26511,0.436807 2.26511,0.436807 8.08421,0.08058 8.08421,0.08058 z m 26.36833,5.3623 v -4.042106 h 19.13422 19.13421 l 2.50563,-0.952639 2.50563,-0.952639 0.61465,-1.93658 0.61465,-1.936579 -0.58377,-1.521274 -0.58377,-1.521274 -2.51827,-1.147402 -2.51828,-1.147403 h -15.22923 -15.22923 l -3.92322,-3.923219 -3.92322,-3.92322 0.004,-4.918886 0.004,-4.918885 1.89797,-3.1124573 1.89797,-3.1124569 3.55623,-1.6875432 3.55624,-1.6875433 h 19.29991 19.29991 v 4.5473686 4.5473681 h -19.04338 -19.04338 l -1.89153,2.090111 -1.89152,2.09011 1.51837,2.70989 1.51837,2.70989 16.63759,0.505263 16.63759,0.505263 2.32775,1.327652 2.32776,1.327651 1.9632,3.219717 1.9632,3.219717 v 4.042105 4.042106 l -1.97258,3.235151 -1.97259,3.235151 -3.02608,1.564849 -3.02609,1.564849 h -21.27123 -21.27124 z m 107.12301,2.432354 -3.52963,-1.530644 -2.37924,-2.219276 -2.37924,-2.219277 -2.15192,-4.042105 -2.15192,-4.042105 -0.0234,-7.578948 -0.0234,-7.578947 2.52632,-4.502497 2.52631,-4.5024962 4.37863,-3.0764512 4.37863,-3.0764511 18.61085,-0.332888 18.61084,-0.33288795 V 5.4776385 10.105263 h -17.19379 -17.19378 l -3.77464,3.459194 -3.77463,3.459194 v 7.069921 7.06992 l 2.52631,2.737964 2.52632,2.737963 3.25175,1.385554 3.25176,1.385554 h 15.19035 15.19035 v 4.042106 4.042105 l -17.43158,-0.03955 -17.43158,-0.03955 z m 60.63157,0 -3.52962,-1.530644 -2.37924,-2.219276 -2.37925,-2.219277 -2.15192,-4.042105 -2.15192,-4.042105 -0.0234,-7.578948 -0.0234,-7.578947 2.78285,-4.733965 2.78284,-4.7339655 2.77505,-1.9724067 2.77505,-1.9724068 4.04211,-1.1195717 4.0421,-1.1195717 h 9.09474 9.09473 l 4.04211,1.1195717 4.04211,1.1195717 2.77504,1.9724068 2.77505,1.9724067 2.78285,4.7339655 2.78284,4.733965 -0.0234,7.578947 -0.0234,7.578948 -2.15192,4.042105 -2.15192,4.042105 -2.38582,2.225454 -2.38581,2.225454 -3.74323,1.56402 -3.74323,1.56402 -11.90614,-0.03955 -11.90614,-0.03955 z m 27.18235,-7.794654 3.44219,-1.206122 2.11571,-2.853049 2.1157,-2.85305 v -7.07723 -7.077231 l -3.77464,-3.459194 -3.77463,-3.459194 h -11.65073 -11.65073 l -3.58436,3.284819 -3.58436,3.284818 -0.56738,4.230123 -0.56738,4.230123 0.66815,3.561529 0.66815,3.56153 3.00174,3.001738 3.00173,3.001739 2.26512,0.436807 2.26511,0.436807 8.08421,0.08058 8.08421,0.08058 z M 475.9579,24.252632 V 1.0105263 l 17.93684,0.00564 17.93684,0.00564 4.03877,1.1212237 4.03877,1.1212236 4.18174,4.1817387 4.18174,4.1817387 1.12122,4.038771 1.12123,4.038771 v 4.547368 4.547369 l -1.06002,3.817095 -1.06002,3.817096 -3.22041,3.667853 -3.22042,3.667853 -4.05077,1.840227 -4.05078,1.840227 -12.88421,0.02219 -12.88421,0.02219 v -3.938196 -3.938196 l 12.42472,-0.356541 12.42472,-0.356541 2.71215,-1.777938 2.71214,-1.777938 1.71451,-3.274694 1.71451,-3.274693 0.0166,-4.61892 0.0167,-4.618919 -2.19057,-3.54441 -2.19057,-3.54441 -2.59868,-1.184039 -2.59868,-1.18404 H 498.14194 484.04212 V 28.800001 47.494738 H 480 475.9579 Z m 66.69473,0 V 1.0105263 h 24.25264 24.25263 v 4.5473686 4.5473681 h -20.23827 -20.23828 l 0.28038,14.400001 0.28038,14.4 19.95789,0.273994 19.9579,0.273994 v 4.020743 4.020743 h -24.25263 -24.25264 z m -400.16842,0 V 20.210527 H 157.64211 172.8 v 4.042105 4.042105 h -15.15789 -15.1579 z m 412.29474,0 v -4.042105 h 15.1579 15.15789 v 4.042105 4.042105 h -15.15789 -15.1579 z M 33.381576,19.24804 31.186586,16.16546 37.995302,8.5879934 44.804018,1.0105263 h 5.995513 5.995513 l -9.825313,10.3578947 -9.825314,10.357895 -0.783926,0.302152 -0.783925,0.302151 z"
         id="path2" />
    </g>
  </g>
</svg>
